<?xml version="1.0" encoding="utf-8"?>
<!-- Generator: Adobe Illustrator 16.0.0, SVG Export Plug-In . SVG Version: 6.00 Build 0)  -->
<!DOCTYPE svg PUBLIC "-//W3C//DTD SVG 1.1//EN" "http://www.w3.org/Graphics/SVG/1.1/DTD/svg11.dtd">
<svg version="1.1" id="Layer_1" xmlns="http://www.w3.org/2000/svg" xmlns:xlink="http://www.w3.org/1999/xlink" x="0px" y="0px"
	 width="100px" height="100px" viewBox="0 0 100 100" enable-background="new 0 0 100 100" xml:space="preserve">
<g>
	<path fill="#8BC53F" d="M45.124,79.146c0,0-8.739-0.963-13.45-7.881c-4.643-6.829-5.08-23.573-0.196-28.725
		c0.063-0.067-0.669,2.297,1.352,3.935c2.016,1.627,19.886,11.819,18.263,20.178c-1.642,8.363-4.139,11.625-4.139,11.625
		s-3.533-4.524-6.055-9.894c-2.328-4.969-4.809-10.719-4.996-10.763c-0.383-0.098,0.098,2.305,1.539,7.017
		C38.337,67.572,42.245,77.224,45.124,79.146L45.124,79.146z"/>
	<path fill="#8BC53F" d="M47.248,78.089c0,0-2.792-16.432,7.198-22.489c6.281-3.796,8.842-3.265,8.842-3.265
		s-0.67,2.301,0.196,4.228c0.864,1.924,7.109,19.507-14.033,21.526c0,0,6.539-15.375,8.27-17.778c0,0-2.31,1.539-4.425,4.996
		C52.903,65.947,49.549,72.514,47.248,78.089L47.248,78.089z"/>
	<path fill="#F6921E" d="M26.098,76.791c0,0,15.036,2.417,23.628,0.268c8.6-2.149,17.726-9.665,17.726-9.665l2.149,6.44
		c0,0-8.055,7.252-17.189,9.135c-9.126,1.878-24.168,1.343-24.168,1.343L26.098,76.791L26.098,76.791z"/>
	<path fill="#754C28" d="M30.791,88.848c0,0-0.459-0.647-1.289-1.824c-0.411-0.599-0.924-1.32-1.446-2.198
		c-0.526-0.884-1.177-1.866-1.775-3.016c-0.303-0.571-0.625-1.174-0.959-1.798c-0.33-0.625-0.625-1.308-0.955-1.994
		c-0.325-0.694-0.656-1.418-0.946-2.181c-0.294-0.763-0.638-1.538-0.905-2.36c-1.16-3.261-2.105-7.007-2.449-11.044
		c-0.04-0.508-0.075-1.007-0.116-1.507c-0.008-0.494-0.018-0.995-0.031-1.49c-0.035-0.985,0.045-1.963,0.081-2.917
		c0.165-1.908,0.397-3.746,0.825-5.46c0.402-1.712,0.905-3.309,1.508-4.749c0.58-1.45,1.235-2.748,1.913-3.876
		c1.334-2.279,2.726-3.898,3.743-4.934c1.026-1.034,1.686-1.494,1.686-1.494s-0.513,0.62-1.263,1.829
		c-0.74,1.213-1.726,3.015-2.609,5.352c-0.447,1.164-0.87,2.458-1.222,3.867c-0.375,1.405-0.66,2.935-0.883,4.541
		c-0.241,1.606-0.321,3.314-0.388,5.072c0.022,0.887-0.027,1.778,0.036,2.692c0.018,0.455,0.041,0.915,0.058,1.379
		c0.041,0.46,0.076,0.929,0.116,1.396c0.634,7.493,2.703,14.179,4.344,18.975c0.384,1.209,0.834,2.266,1.173,3.224
		c0.334,0.964,0.673,1.767,0.941,2.431C30.5,88.107,30.791,88.848,30.791,88.848L30.791,88.848z"/>
	<path fill="#5D4012" d="M67.033,54.689c0,0,0.044,0.571,0.125,1.629c0.018,0.263,0.035,0.558,0.053,0.878
		c0.045,0.322,0.081,0.67,0.135,1.049c0.036,0.379,0.089,0.78,0.134,1.209c0.08,0.423,0.151,0.873,0.241,1.352
		c0.339,1.896,0.855,4.157,1.783,6.592c0.455,1.214,1.008,2.463,1.678,3.729c0.169,0.309,0.339,0.624,0.518,0.942
		c0.196,0.307,0.374,0.624,0.579,0.928c0.196,0.303,0.401,0.62,0.616,0.91l0.178,0.239l0.304,0.397
		c0.196,0.255,0.463,0.566,0.704,0.856c-0.241,0.74-0.472,1.49-0.713,2.253c-0.08,0.258-0.17,0.525-0.25,0.789
		c-0.106,0.263-0.215,0.522-0.321,0.785c-0.223,0.522-0.419,1.061-0.678,1.583c-0.276,0.513-0.554,1.03-0.839,1.558
		c-1.223,2.047-2.828,3.997-4.8,5.61c-2.042,1.683-4.335,2.908-6.618,3.756c-2.302,0.847-4.595,1.347-6.771,1.605
		c-4.38,0.5-8.287,0.214-11.5-0.276c-3.211-0.486-5.741-1.174-7.467-1.699c-1.722-0.531-2.641-0.919-2.641-0.919
		s0.981,0.179,2.752,0.388c1.775,0.205,4.344,0.455,7.502,0.504c3.147,0.054,6.903-0.111,10.89-0.882
		c3.97-0.794,8.198-2.312,11.659-5.153c1.659-1.364,3.042-2.966,4.157-4.674c0.268-0.438,0.526-0.878,0.785-1.308
		c0.241-0.44,0.437-0.905,0.66-1.351c0.107-0.223,0.224-0.446,0.33-0.664c0.08-0.237,0.17-0.465,0.259-0.691l0.134-0.344l0.063-0.17
		c0.018-0.049,0.018-0.027,0.026-0.044c0.018-0.037,0.045-0.072,0.063-0.111c-0.01-0.027-0.01-0.037-0.054-0.107l-0.045-0.09
		l-0.16-0.258c-0.224-0.366-0.42-0.736-0.625-1.098c-0.188-0.366-0.365-0.736-0.544-1.093c-0.16-0.365-0.313-0.731-0.474-1.089
		c-0.579-1.449-1.034-2.854-1.355-4.201c-0.669-2.688-0.865-5.111-0.9-7.092c-0.01-0.499-0.01-0.964-0.019-1.409
		c0.027-0.438,0.054-0.852,0.071-1.239c0.018-0.39,0.045-0.745,0.063-1.072c0.035-0.325,0.071-0.62,0.107-0.883
		C66.962,55.256,67.033,54.689,67.033,54.689L67.033,54.689z"/>
	<path fill="#754C28" d="M68.746,44.445c0,0,0.08,0.009,0.24,0.026c0.16,0.022,0.402,0.027,0.714,0.022
		c0.625-0.018,1.544-0.192,2.569-0.727c2.079-1.048,4.486-3.617,6.209-7.381c0.865-1.874,1.562-4.046,1.9-6.41
		c0.339-2.36,0.312-4.929-0.366-7.436c-0.321-1.249-0.848-2.466-1.507-3.621c-0.688-1.138-1.518-2.217-2.534-3.167
		c-2.017-1.914-4.657-3.34-7.565-4.317c-1.462-0.491-2.943-0.866-4.469-1.151c-0.749-0.156-1.499-0.321-2.239-0.405
		c-0.749-0.094-1.489-0.259-2.222-0.29c-2.916-0.295-5.744-0.21-8.269,0.433c-0.321,0.08-0.633,0.16-0.945,0.24
		c-0.295,0.112-0.589,0.223-0.883,0.334c-0.616,0.188-1.134,0.509-1.695,0.764c-1.053,0.61-2.034,1.288-2.837,2.118
		c-1.677,1.606-2.785,3.577-3.543,5.481c-0.767,1.909-1.195,3.77-1.454,5.42c-0.263,1.655-0.362,3.108-0.406,4.304
		c-0.067,2.382,0.075,3.711,0.075,3.711s-0.084-0.321-0.209-0.946c-0.121-0.625-0.281-1.547-0.406-2.752
		c-0.121-1.2-0.21-2.686-0.152-4.424c0.072-1.731,0.295-3.721,0.91-5.875c0.616-2.136,1.637-4.478,3.455-6.539
		c0.874-1.053,1.989-1.962,3.203-2.779c0.633-0.357,1.258-0.785,1.953-1.062c0.348-0.152,0.696-0.298,1.044-0.455
		c0.356-0.116,0.722-0.237,1.088-0.353c2.926-0.923,6.138-1.155,9.349-0.928c0.812,0.014,1.597,0.165,2.418,0.245
		c0.812,0.085,1.614,0.241,2.426,0.393c1.615,0.276,3.273,0.678,4.916,1.23c3.273,1.098,6.378,2.811,8.776,5.232
		c1.195,1.196,2.187,2.574,2.962,4.01c0.759,1.449,1.303,2.966,1.606,4.479c0.634,3.024,0.429,5.958-0.151,8.537
		c-0.589,2.592-1.562,4.866-2.694,6.784c-2.247,3.841-5.174,6.258-7.529,7.07c-1.169,0.419-2.158,0.459-2.792,0.383
		c-0.313-0.044-0.553-0.089-0.705-0.138C68.826,44.467,68.746,44.445,68.746,44.445L68.746,44.445z"/>
	<path fill="#754C28" d="M18.726,51.674c0,0-0.21-0.065-0.607-0.199c-0.397-0.146-0.981-0.374-1.694-0.763
		c-1.423-0.754-3.431-2.105-5.299-4.443c-0.928-1.164-1.82-2.574-2.476-4.247c-0.348-0.83-0.598-1.735-0.812-2.676
		c-0.173-0.945-0.325-1.939-0.33-2.961c-0.116-4.126,1.49-8.564,4.135-12.271c1.307-1.86,2.823-3.582,4.531-4.968
		c1.704-1.401,3.591-2.476,5.495-3.18c1.909-0.706,3.823-1.053,5.598-1.111c1.776-0.063,3.408,0.125,4.854,0.428
		c2.895,0.611,5.035,1.632,6.445,2.404c1.409,0.785,2.096,1.343,2.096,1.343s-0.803-0.37-2.311-0.843
		c-1.503-0.463-3.725-1.035-6.458-1.187c-2.721-0.156-5.986,0.169-9.099,1.664c-1.557,0.736-3.065,1.74-4.461,2.997
		c-1.405,1.258-2.672,2.761-3.854,4.442c-2.359,3.323-3.835,6.923-4.045,10.331c-0.254,3.412,0.767,6.525,2.119,8.854
		c1.351,2.359,2.97,3.982,4.175,4.973c0.598,0.508,1.106,0.846,1.454,1.079C18.538,51.559,18.726,51.674,18.726,51.674
		L18.726,51.674z"/>
	<path fill="#754C28" d="M67.033,54.689c0,0,0.107,0.135,0.313,0.376c0.205,0.231,0.525,0.557,0.98,0.928
		c0.91,0.727,2.347,1.646,4.256,2.35c0.945,0.353,2.007,0.639,3.141,0.78c1.133,0.152,2.337,0.148,3.523-0.098
		c1.195-0.228,2.354-0.731,3.442-1.449c1.098-0.719,2.087-1.713,2.989-2.854c1.82-2.314,2.891-4.835,2.737-7.23
		c-0.088-2.405-1.221-4.576-2.381-6.24c-1.168-1.668-2.382-2.895-3.238-3.715c-0.866-0.816-1.391-1.227-1.391-1.227
		s0.624,0.219,1.703,0.789c1.07,0.576,2.604,1.481,4.236,3.02c0.813,0.771,1.642,1.708,2.374,2.872
		c0.741,1.156,1.338,2.574,1.605,4.18c0.275,1.602,0.134,3.381-0.402,5.05c-0.534,1.681-1.427,3.237-2.523,4.643
		c-1.106,1.406-2.428,2.654-3.962,3.532c-1.524,0.88-3.192,1.419-4.798,1.525c-1.606,0.139-3.114-0.084-4.425-0.48
		c-1.312-0.393-2.444-0.942-3.408-1.544c-1.918-1.2-3.158-2.537-3.881-3.532c-0.348-0.504-0.579-0.929-0.714-1.219
		C67.087,54.847,67.033,54.689,67.033,54.689L67.033,54.689z"/>
</g>
</svg>
